<svg width="522" height="509" viewBox="0 0 522 509" fill="none" xmlns="http://www.w3.org/2000/svg">
<path d="M260.643 0C116.638 0 0 116.703 0 260.643C0 375.826 74.6743 473.502 178.215 507.928C191.247 510.383 196.025 502.325 196.025 495.396C196.025 489.205 195.808 472.807 195.7 451.086C123.197 466.812 107.906 416.117 107.906 416.117C96.047 386.034 78.9097 377.998 78.9097 377.998C55.2998 361.838 80.7342 362.164 80.7342 362.164C106.907 363.988 120.656 389.01 120.656 389.01C143.897 428.867 181.668 417.355 196.568 410.687C198.914 393.832 205.626 382.342 213.076 375.826C155.191 369.31 94.3528 346.894 94.3528 247.025C94.3528 218.571 104.453 195.33 121.177 177.085C118.245 170.504 109.448 144.005 123.458 108.102C123.458 108.102 145.287 101.108 195.135 134.818C215.986 129.018 238.141 126.151 260.296 126.021C282.45 126.151 304.605 129.018 325.456 134.818C374.979 101.108 396.808 108.102 396.808 108.102C410.817 144.005 402.02 170.504 399.414 177.085C416.03 195.33 426.13 218.571 426.13 247.025C426.13 347.155 365.205 369.201 307.211 375.609C316.334 383.428 324.805 399.414 324.805 423.827C324.805 458.71 324.479 486.729 324.479 495.2C324.479 502.042 329.04 510.187 342.398 507.581C446.677 473.393 521.286 375.652 521.286 260.643C521.286 116.703 404.583 0 260.643 0Z" fill="white"/>
</svg>
