<svg width="522" height="391" viewBox="0 0 522 391" fill="none" xmlns="http://www.w3.org/2000/svg">
<path d="M521.286 32.5839V358.388C521.286 376.85 507.168 390.968 488.706 390.968H456.126V95.2903L260.643 235.668L65.1608 95.2903V390.968H32.5804C14.0965 390.968 0 376.85 0 358.388V32.5839C0 23.3527 3.51868 15.2076 9.36143 9.38661C12.4106 6.35359 16.0356 3.961 20.0231 2.34959C24.0106 0.738178 28.2801 -0.0595084 32.5804 0.00345724H43.4405L260.643 157.475L477.846 0.00345724H488.706C497.937 0.00345724 506.082 3.52214 511.925 9.38661C517.789 15.2076 521.286 23.3527 521.286 32.5839Z" fill="white"/>
</svg>
