<svg width="522" height="522" viewBox="0 0 522 522" fill="none" xmlns="http://www.w3.org/2000/svg">
<path d="M444.114 444.223H366.92V323.263C366.92 294.418 366.334 257.298 326.695 257.298C286.447 257.298 280.3 288.684 280.3 321.134V444.223H203.106V195.482H277.259V229.388H278.258C288.619 209.839 313.814 189.205 351.456 189.205C429.67 189.205 444.136 240.682 444.136 307.689L444.114 444.223ZM115.921 161.447C110.032 161.45 104.201 160.291 98.76 158.038C93.3194 155.784 88.3767 152.48 84.2146 148.314C80.0526 144.147 76.753 139.202 74.5047 133.759C72.2564 128.316 71.1036 122.483 71.1122 116.594C71.1164 107.728 73.7499 99.0615 78.6795 91.6915C83.6092 84.3215 90.6135 78.5789 98.8069 75.1897C107 71.8006 116.015 70.9171 124.71 72.6511C133.406 74.3852 141.392 78.6587 147.658 84.9314C153.925 91.2041 158.191 99.1943 159.916 107.891C161.642 116.589 160.75 125.602 157.353 133.792C153.955 141.982 148.206 148.981 140.831 153.903C133.457 158.826 124.788 161.451 115.921 161.447ZM154.627 444.223H77.2155V195.482H154.627V444.223ZM482.733 0H38.4666C17.2025 0 0 16.8115 0 37.5543V483.732C0 504.497 17.2025 521.286 38.4666 521.286H482.668C503.91 521.286 521.286 504.497 521.286 483.732V37.5543C521.286 16.8115 503.91 0 482.668 0H482.733Z" fill="white"/>
</svg>
