<svg width="107" height="49" viewBox="0 0 107 49" fill="none" xmlns="http://www.w3.org/2000/svg">
<path d="M10.4074 48.512C8.50878 48.512 6.93011 48.2027 5.67145 47.584C4.41278 46.944 3.42078 46.0267 2.69545 44.832C1.97011 43.6373 1.44745 42.1973 1.12745 40.512C0.82878 38.8267 0.679447 36.928 0.679447 34.816L7.46345 34.176C7.46345 35.2 7.49545 36.192 7.55945 37.152C7.64478 38.0907 7.78345 38.944 7.97545 39.712C8.18878 40.4587 8.48745 41.056 8.87145 41.504C9.27678 41.952 9.78878 42.176 10.4074 42.176C11.4314 42.176 12.1568 41.7067 12.5834 40.768C13.0101 39.808 13.2234 38.656 13.2234 37.312C13.2234 35.968 12.8714 34.5707 12.1674 33.12C11.4634 31.6693 10.6208 30.2933 9.63945 28.992C7.97545 26.7733 6.51411 24.7147 5.25545 22.816C4.01811 20.9173 3.04745 19.0507 2.34345 17.216C1.66078 15.3813 1.31945 13.4613 1.31945 11.456C1.31945 9.87733 1.52211 8.42666 1.92745 7.104C2.33278 5.76 2.91945 4.59733 3.68745 3.616C4.47678 2.61333 5.42611 1.83467 6.53545 1.28C7.64478 0.725332 8.91411 0.447998 10.3434 0.447998C12.1141 0.447998 13.6074 0.746665 14.8234 1.344C16.0608 1.94133 17.0528 2.79467 17.7994 3.904C18.5674 5.01333 19.1221 6.336 19.4634 7.872C19.8261 9.38666 20.0074 11.072 20.0074 12.928L13.2234 13.568C13.2234 12.7787 13.1808 11.9893 13.0954 11.2C13.0314 10.3893 12.9034 9.65333 12.7114 8.992C12.5194 8.33067 12.2421 7.79733 11.8794 7.392C11.5168 6.98666 11.0474 6.784 10.4714 6.784C9.57545 6.784 8.95678 7.168 8.61545 7.936C8.27411 8.68267 8.10345 9.74933 8.10345 11.136C8.10345 12.928 8.58345 14.656 9.54345 16.32C10.5034 17.984 11.7941 19.9253 13.4154 22.144C15.3568 24.768 16.9354 27.1787 18.1514 29.376C19.3888 31.5733 20.0074 34.0053 20.0074 36.672C20.0074 38.3573 19.8261 39.9253 19.4634 41.376C19.1008 42.8053 18.5248 44.0533 17.7354 45.12C16.9674 46.1867 15.9754 47.0187 14.7594 47.616C13.5648 48.2133 12.1141 48.512 10.4074 48.512ZM21.7924 48V0.959999H28.2564L34.6564 25.472L35.2324 27.648H35.6164V0.959999H41.9524V48H36.1284L29.0884 23.488L28.5124 21.312H28.1284V48H21.7924ZM45.1224 48V0.959999H52.0344V16.64V17.408H52.2904L52.6104 16.64L57.9864 0.959999H65.0904L58.7544 16.448L65.9224 48H58.8184L54.2104 26.56H54.0184L52.0344 31.36V48H45.1224ZM67.2024 48V0.959999H74.1144C78.2531 0.959999 81.3038 2.112 83.2664 4.416C85.2291 6.69866 86.2104 10.0693 86.2104 14.528C86.2104 17.1733 85.7411 19.4667 84.8024 21.408C83.8851 23.328 82.7651 24.736 81.4424 25.632L86.1464 48H79.2344L75.3304 28.16H74.1144V48H67.2024ZM74.1144 21.76C75.3944 21.76 76.4078 21.4827 77.1544 20.928C77.9011 20.352 78.4344 19.5413 78.7544 18.496C79.0744 17.4507 79.2344 16.2133 79.2344 14.784C79.2344 12.544 78.8611 10.8267 78.1144 9.632C77.3891 8.416 76.0558 7.808 74.1144 7.808V21.76ZM96.4774 48.512C94.5788 48.512 93.0001 48.2027 91.7414 47.584C90.4828 46.944 89.4908 46.0267 88.7654 44.832C88.0401 43.6373 87.5174 42.1973 87.1974 40.512C86.8988 38.8267 86.7494 36.928 86.7494 34.816L93.5334 34.176C93.5334 35.2 93.5654 36.192 93.6294 37.152C93.7148 38.0907 93.8534 38.944 94.0454 39.712C94.2588 40.4587 94.5574 41.056 94.9414 41.504C95.3468 41.952 95.8588 42.176 96.4774 42.176C97.5014 42.176 98.2268 41.7067 98.6534 40.768C99.0801 39.808 99.2934 38.656 99.2934 37.312C99.2934 35.968 98.9414 34.5707 98.2374 33.12C97.5334 31.6693 96.6908 30.2933 95.7094 28.992C94.0454 26.7733 92.5841 24.7147 91.3254 22.816C90.0881 20.9173 89.1174 19.0507 88.4134 17.216C87.7308 15.3813 87.3894 13.4613 87.3894 11.456C87.3894 9.87733 87.5921 8.42666 87.9974 7.104C88.4028 5.76 88.9894 4.59733 89.7574 3.616C90.5468 2.61333 91.4961 1.83467 92.6054 1.28C93.7148 0.725332 94.9841 0.447998 96.4134 0.447998C98.1841 0.447998 99.6774 0.746665 100.893 1.344C102.131 1.94133 103.123 2.79467 103.869 3.904C104.637 5.01333 105.192 6.336 105.533 7.872C105.896 9.38666 106.077 11.072 106.077 12.928L99.2934 13.568C99.2934 12.7787 99.2508 11.9893 99.1654 11.2C99.1014 10.3893 98.9734 9.65333 98.7814 8.992C98.5894 8.33067 98.3121 7.79733 97.9494 7.392C97.5868 6.98666 97.1174 6.784 96.5414 6.784C95.6454 6.784 95.0268 7.168 94.6854 7.936C94.3441 8.68267 94.1734 9.74933 94.1734 11.136C94.1734 12.928 94.6534 14.656 95.6134 16.32C96.5734 17.984 97.8641 19.9253 99.4854 22.144C101.427 24.768 103.005 27.1787 104.221 29.376C105.459 31.5733 106.077 34.0053 106.077 36.672C106.077 38.3573 105.896 39.9253 105.533 41.376C105.171 42.8053 104.595 44.0533 103.805 45.12C103.037 46.1867 102.045 47.0187 100.829 47.616C99.6348 48.2133 98.1841 48.512 96.4774 48.512Z" fill="white"/>
</svg>
